<?xml version="1.0" encoding="utf-8"?>
<!-- Generator: Adobe Illustrator 24.3.0, SVG Export Plug-In . SVG Version: 6.00 Build 0)  -->
<svg version="1.1" id="Layer_1" xmlns="http://www.w3.org/2000/svg" xmlns:xlink="http://www.w3.org/1999/xlink" x="0px" y="0px"
	 viewBox="0 0 425 425" enable-background="new 0 0 425 425" xml:space="preserve">
<g>
	<linearGradient id="SVGID_1_" gradientUnits="userSpaceOnUse" x1="-193.3286" y1="366.6201" x2="1814.6715" y2="-725.3782">
		<stop  offset="0" style="stop-color:#00C9FF"/>
		<stop  offset="1" style="stop-color:#3B72DE"/>
	</linearGradient>
	<path fill="url(#SVGID_1_)" d="M310.011,116.342H114.988c-12.902,0-23.398,10.497-23.398,23.399v46.588
		c0,2.695,2.186,4.881,4.881,4.881c2.695,0,4.881-2.186,4.881-4.881v-35.32h222.296v12.096c0,2.695,2.186,4.881,4.881,4.881
		c2.696,0,4.881-2.186,4.881-4.881v-23.363C333.41,126.839,322.914,116.342,310.011,116.342z M101.352,141.247v-1.506
		c0-7.52,6.117-13.637,13.636-13.637h195.023c7.52,0,13.637,6.117,13.637,13.637v1.506H101.352z"/>
	<linearGradient id="SVGID_2_" gradientUnits="userSpaceOnUse" x1="-192.2227" y1="368.6627" x2="1815.7966" y2="-723.3461">
		<stop  offset="0" style="stop-color:#00C9FF"/>
		<stop  offset="1" style="stop-color:#3B72DE"/>
	</linearGradient>
	<path fill="url(#SVGID_2_)" d="M96.471,226.284c2.695,0,4.881-2.186,4.881-4.881v-19.478c0-2.695-2.185-4.881-4.881-4.881
		c-2.695,0-4.881,2.186-4.881,4.881v19.478C91.59,224.098,93.776,226.284,96.471,226.284z"/>
	<linearGradient id="SVGID_3_" gradientUnits="userSpaceOnUse" x1="-147.3508" y1="451.1678" x2="1860.6489" y2="-640.8302">
		<stop  offset="0" style="stop-color:#00C9FF"/>
		<stop  offset="1" style="stop-color:#3B72DE"/>
	</linearGradient>
	<path fill="url(#SVGID_3_)" d="M328.529,208.894c-2.695,0-4.881,2.186-4.881,4.88v28.993H101.352v-5.768
		c0-2.695-2.185-4.881-4.881-4.881c-2.696,0-4.881,2.186-4.881,4.881v21.374c0,12.902,10.497,23.397,23.398,23.397h68.21
		l-12.499,17.126h-19.374c-2.695,0-4.881,2.184-4.881,4.881c0,2.695,2.186,4.881,4.881,4.881h122.351
		c2.695,0,4.881-2.186,4.881-4.881c0-2.697-2.185-4.881-4.881-4.881h-19.374l-12.499-17.126h68.209
		c12.903,0,23.399-10.495,23.399-23.397v-44.599C333.41,211.08,331.226,208.894,328.529,208.894z M230.522,282.875l11.693,16.021
		h-59.431l11.693-16.021c0.254-0.349,0.45-0.72,0.6-1.104h34.844C230.072,282.155,230.268,282.526,230.522,282.875z
		 M310.011,272.008H114.988c-7.519,0-13.636-6.117-13.636-13.636v-5.844h222.296v5.844
		C323.648,265.891,317.531,272.008,310.011,272.008z"/>
	<linearGradient id="SVGID_4_" gradientUnits="userSpaceOnUse" x1="-149.0002" y1="448.1312" x2="1858.996" y2="-643.8649">
		<stop  offset="0" style="stop-color:#00C9FF"/>
		<stop  offset="1" style="stop-color:#3B72DE"/>
	</linearGradient>
	<path fill="url(#SVGID_4_)" d="M328.529,173.82c-2.695,0-4.881,2.186-4.881,4.881v19.477c0,2.697,2.186,4.881,4.881,4.881
		c2.696,0,4.881-2.184,4.881-4.881v-19.477C333.41,176.005,331.226,173.82,328.529,173.82z"/>
</g>
</svg>
